<?xml version="1.0" encoding="utf-8"?>
<!-- Generator: Adobe Illustrator 22.1.0, SVG Export Plug-In . SVG Version: 6.00 Build 0)  -->
<svg version="1.1" id="Layer_1" xmlns="http://www.w3.org/2000/svg" xmlns:xlink="http://www.w3.org/1999/xlink" x="0px" y="0px"
	 width="958.3px" height="316.7px" viewBox="0 0 958.3 316.7" style="enable-background:new 0 0 958.3 316.7;" xml:space="preserve"
	>
<style type="text/css">
	.st0{fill:#FFFFFF;}
	.st1{fill:#DA1F32;}
</style>
<g>
	<path class="st0" d="M67.4,112.1c2.5,1.8,5.5,2.9,8.6,3.1c5.6,0.3,11-2.2,14.3-6.8l31.3-43.6c5.3-7.3,3.6-17.6-3.7-22.9
		s-17.6-3.6-22.9,3.7L63.7,89.2C58.4,96.5,60.1,106.8,67.4,112.1z"/>
	<path class="st0" d="M70.9,233.9L220.4,26c5.3-7.3,3.6-17.6-3.7-22.9s-17.6-3.6-22.9,3.7l-149.5,208c-5.3,7.3-3.6,17.6,3.7,22.9
		c2.5,1.8,5.5,2.9,8.6,3.1C62.3,241,67.6,238.5,70.9,233.9z"/>
	<path class="st0" d="M229,207.8l31.3-43.5c2.6-3.6,3.6-7.9,2.9-12.2s-3-8.1-6.6-10.7c-7.3-5.3-17.6-3.6-22.9,3.7l-31.3,43.5
		c-2.6,3.6-3.6,7.9-2.9,12.2c0.7,4.3,3,8.1,6.6,10.7c2.5,1.8,5.5,2.9,8.6,3.1C220.4,215,225.8,212.4,229,207.8z"/>
	<path class="st0" d="M118.6,235.4c-7.3-5.3-17.6-3.6-22.9,3.7l-33.1,46.2c-5.3,7.3-3.6,17.6,3.7,22.9c2.5,1.8,5.5,2.9,8.6,3.1
		c5.6,0.3,11-2.2,14.3-6.8l33.2-46.2C127.6,250.9,125.9,240.6,118.6,235.4z"/>
	<path class="st0" d="M182.9,174.3l31-43.2c5.3-7.3,3.6-17.6-3.7-22.9s-17.6-3.6-22.9,3.7l-31,43.2c-5.3,7.3-3.6,17.6,3.7,22.9
		c2.5,1.8,5.5,2.9,8.6,3.1C174.3,181.4,179.6,178.9,182.9,174.3z"/>
	<path class="st1" d="M16.3,199.5c-0.3,0-0.6,0-1,0c-3.1-0.2-6-1.2-8.5-3c-7.3-5.2-9-15.4-3.7-22.7c3-4.2,8-6.8,13.2-6.8
		c3.4,0,6.7,1.1,9.5,3.1c3.5,2.5,5.9,6.3,6.6,10.6c0.7,4.3-0.3,8.6-2.8,12.1C26.5,196.9,21.6,199.5,16.3,199.5L16.3,199.5z"/>
	<path class="st1" d="M46.3,157.3c-0.3,0-0.6,0-0.9,0c-3.1-0.2-6-1.2-8.5-3c-7.3-5.2-9-15.4-3.7-22.7c3-4.2,8-6.8,13.2-6.8
		c3.4,0,6.7,1.1,9.5,3.1c7.3,5.2,9,15.4,3.7,22.7c-2.5,3.5-6.3,5.9-10.6,6.6C48.1,157.3,47.2,157.3,46.3,157.3z"/>
	<path class="st1" d="M231.5,290c-0.3,0-0.6,0-0.9,0c-3.1-0.2-6-1.2-8.5-3c-7.3-5.2-9-15.4-3.7-22.7c3-4.2,8-6.8,13.2-6.8
		c3.4,0,6.7,1.1,9.5,3.1c3.5,2.5,5.9,6.3,6.6,10.6c0.7,4.3-0.3,8.6-2.8,12.1s-6.3,5.9-10.6,6.6C233.3,289.9,232.4,290,231.5,290z"/>
	<path class="st1" d="M270.3,235.7c-0.3,0-0.6,0-0.9,0c-3.1-0.2-6-1.2-8.5-3c-7.3-5.2-9-15.4-3.7-22.7c3-4.2,8-6.8,13.2-6.8
		c3.4,0,6.7,1.1,9.5,3.1c7.3,5.2,9,15.4,3.7,22.7c-2.5,3.5-6.3,5.9-10.6,6.6C272.1,235.6,271.2,235.7,270.3,235.7z"/>
	<path class="st1" d="M320.1,166.5c-0.3,0-0.6,0-0.9,0c-3.1-0.2-6-1.2-8.5-3c-3.5-2.5-5.9-6.3-6.6-10.6s0.3-8.6,2.8-12.1
		c3-4.2,8-6.8,13.2-6.8c3.4,0,6.7,1.1,9.5,3.1c3.5,2.5,5.9,6.3,6.6,10.6s-0.3,8.6-2.8,12.1C330.3,163.9,325.3,166.5,320.1,166.5
		L320.1,166.5z"/>
	<path class="st1" d="M146.3,311.2c-0.3,0-0.6,0-1,0c-3.1-0.2-6-1.2-8.5-3c-3.5-2.5-5.9-6.3-6.6-10.6c-0.7-4.3,0.3-8.6,2.8-12.1
		c3-4.2,8-6.8,13.2-6.8c3.4,0,6.7,1.1,9.5,3.1c7.3,5.2,9,15.4,3.7,22.7C156.5,308.7,151.6,311.2,146.3,311.2L146.3,311.2z"/>
	<path class="st1" d="M185.1,256.9c-0.3,0-0.6,0-0.9,0c-3.1-0.2-6-1.2-8.5-3c-7.3-5.2-9-15.4-3.7-22.7c2.5-3.5,6.3-5.9,10.6-6.6
		c0.9-0.1,1.8-0.2,2.7-0.2c3.4,0,6.7,1.1,9.5,3.1c7.3,5.2,9,15.4,3.7,22.7c-2.5,3.5-6.3,5.9-10.6,6.6
		C186.9,256.9,186,256.9,185.1,256.9L185.1,256.9z"/>
	<path class="st1" d="M135.2,33.7c-0.3,0-0.6,0-0.9,0c-3.1-0.2-6-1.2-8.5-3c-3.5-2.5-5.9-6.3-6.6-10.6s0.3-8.6,2.8-12.1
		c2.5-3.5,6.3-5.9,10.6-6.6c0.9-0.1,1.8-0.2,2.7-0.2c3.4,0,6.7,1.1,9.5,3.1c3.5,2.5,5.9,6.3,6.6,10.6s-0.3,8.6-2.8,12.1
		s-6.3,5.9-10.6,6.6C137,33.6,136.1,33.7,135.2,33.7z"/>
	<path class="st1" d="M227.7,100.1c-0.3,0-0.6,0-0.9,0c-3.1-0.2-6-1.2-8.5-3c-3.5-2.5-5.9-6.3-6.6-10.6c-0.7-4.3,0.3-8.6,2.8-12.1
		c3-4.2,8-6.8,13.2-6.8c3.4,0,6.7,1.1,9.5,3.1c7.3,5.2,9,15.4,3.7,22.7c-2.5,3.5-6.3,5.9-10.6,6.6
		C229.5,100,228.6,100.1,227.7,100.1L227.7,100.1z"/>
	<path class="st1" d="M139,223.7c-0.3,0-0.6,0-0.9,0c-3.1-0.2-6-1.2-8.5-3c-7.3-5.2-9-15.4-3.7-22.7c2.5-3.5,6.3-5.9,10.6-6.6
		c0.9-0.1,1.8-0.2,2.7-0.2c3.4,0,6.7,1.1,9.5,3.1c3.5,2.5,5.9,6.3,6.6,10.6c0.7,4.3-0.3,8.6-2.8,12.1s-6.3,5.9-10.6,6.6
		C140.7,223.7,139.8,223.7,139,223.7L139,223.7z"/>
	<path class="st0" d="M958.3,243.4c-0.3-41.4-33.8-72.3-75.5-72.3s-75.2,31.2-75.2,72.9c0,41.9,33.6,73.1,75.2,73.1l0,0
		c41.6,0,75-30.8,75.5-72.2l0,0V243.4L958.3,243.4z M923.5,244.4c-0.2,22.2-18.2,40.3-40.7,40.3l0,0c-22.1,0-40.2-18.3-40.2-40.7
		c0-22.1,18.1-40.5,40.2-40.5c22.5,0,40.5,18.1,40.7,40.1V244.4z"/>
	<path class="st0" d="M303.4,296.1c0,9.2,7.5,16.7,16.7,16.7l0,0c9.2,0,16.7-7.5,16.7-16.7v-95.3h-33.3v95.3H303.4z"/>
	<path class="st0" d="M493.9,280.4l-79,0.2l0.7-1L514.2,142c2.4-3.3,0-7.9-4.1-7.9H371v32.6l84.6-0.2v0.5l-99.2,137.8
		c-2.4,3.3,0,7.9,4.1,7.9H494c8.9,0,16.2-7.2,16.2-16.2l0,0C510.1,287.6,502.9,280.4,493.9,280.4z"/>
	<path class="st0" d="M741.3,170.8c-17.4,0-33.3,7.1-42.9,20.2h-0.5v-16.2h-30.7V296c0,9.2,7.5,16.7,16.7,16.7l0,0
		c9.2,0,16.7-7.5,16.7-16.7v-61.6c0-17,13.9-31.5,30.8-31.3c16.5,0.2,29.9,13.7,29.9,30.5V296c0,9.2,7.5,16.7,16.7,16.7l0,0
		c9.2,0,16.7-7.5,16.7-16.7v-66.7C794.7,194.9,773,170.8,741.3,170.8z"/>
	<path class="st0" d="M637.6,245.5L637.6,245.5c-7.1,0.2-13.1,4.9-15.4,11.5c-4.8,13.4-16.6,24.1-31.8,26.7
		c-6.3,1.1-10.5,0.8-15.8-0.5l63.2-88.3c0.3-0.5,0.3-1.1-0.1-1.6c-15.8-17.4-39.9-25.8-66.1-21.6c-40.8,7.1-68.8,43.2-62.2,84.3
		c7.2,41.3,45.4,66.3,86.3,59.7c28.8-5,50.1-23.7,58.3-48.4C657.6,256.3,649,245.2,637.6,245.5z M543.9,250.2
		c-3.4-21.6,11.2-42.9,33-46.6c6.8-1.1,12.3-0.4,17.8,1.1l-44.2,61.7C547.6,261.6,545,256.3,543.9,250.2z"/>
</g>
</svg>
