<?xml version="1.0" encoding="utf-8"?>
<!-- Generator: Adobe Illustrator 22.1.0, SVG Export Plug-In . SVG Version: 6.00 Build 0)  -->
<svg version="1.1" id="Layer_1" xmlns="http://www.w3.org/2000/svg" xmlns:xlink="http://www.w3.org/1999/xlink" x="0px" y="0px"
	 width="841.9px" height="595.3px" viewBox="0 0 841.9 595.3" style="enable-background:new 0 0 841.9 595.3;" xml:space="preserve"
	>
<style type="text/css">
	.st0{fill:#FFFFFF;}
</style>
<g transform="translate(0 -1)">
	<g>
		<g>
			<path class="st0" d="M443.6,260.5c-13.9-5.7-29.9-0.9-38.2,11.6c-8.3,12.5-6.7,29.1,3.9,39.7c5.9,5.9,13.9,9.2,22.3,9.2
				c15,0,27.9-10.6,30.8-25.4C465.4,281,457.5,266.3,443.6,260.5z M457.8,300.4c-5.1,12.5-18.4,19.5-31.6,16.9s-22.7-14.2-22.7-27.7
				c0-7.5,3-14.7,8.2-19.9l0,0c9.5-9.5,24.5-11,35.7-3.6C458.6,273.5,462.9,287.9,457.8,300.4z"/>
			<path class="st0" d="M458.7,262.6c-14.2-14.2-37-15-52.1-1.7s-17.4,36-5.1,51.9l-2.9,2.9c-1.1-0.3-2.4,0-3.2,0.8l-21.1,21.1
				c-0.8,0.8-1.2,2.1-0.8,3.2l-1.5,1.5c-0.9,0.9-1.5,2.2-1.5,3.5s0.5,2.6,1.5,3.5l1.2-1.2l-1.2,1.2c0.9,0.9,2.2,1.5,3.5,1.5
				s2.6-0.5,3.5-1.5l1.5-1.5c1.1,0.3,2.4,0,3.2-0.8l21.1-21.1c0.8-0.8,1.2-2.1,0.8-3.2l2.9-2.9c16,12.2,38.7,10,51.9-5.1
				C473.6,299.6,472.9,276.8,458.7,262.6z M376.5,347.1c-0.7,0.6-1.7,0.6-2.3,0l0,0v0c-0.3-0.3-0.5-0.7-0.5-1.2
				c0-0.4,0.2-0.9,0.5-1.2l1.2-1.2l2.3,2.3L376.5,347.1z M381.2,344.7l-2.3-2.3l-2.3-2.3l0,0l16.4-16.4l4.7,4.7L381.2,344.7z
				 M400,325.9l-4.7-4.7l2.3-2.3l0,0l2.3,2.3l2.3,2.3L400,325.9z M403.5,320.1l-1.2-1.2l-1.2-1.2l2.4-2.4c0.4,0.4,0.7,0.8,1.1,1.2
				c0.4,0.4,0.8,0.7,1.2,1.1L403.5,320.1z M445,321.8c-13,5.4-28,2.4-38-7.6c-13.6-13.6-13.6-35.7,0-49.3c10-10,25-12.9,38-7.6
				c13,5.4,21.5,18.1,21.5,32.2C466.5,303.7,458,316.4,445,321.8z"/>
			<path class="st0" d="M444.9,284.6c-1.8,0-3.3,1.5-3.3,3.3v8.3h-3.3v-14.9c0-1.8-1.5-3.3-3.3-3.3h-5c-1.8,0-3.3,1.5-3.3,3.3v14.9
				h-3.3v-21.5c0-1.8-1.5-3.3-3.3-3.3h-5c-1.8,0-3.3,1.5-3.3,3.3v23.2c0,0.9,0.7,1.7,1.7,1.7h38.1c0.9,0,1.7-0.7,1.7-1.7v-9.9
				c0-1.8-1.5-3.3-3.3-3.3L444.9,284.6L444.9,284.6z M420.1,296.2h-5l0-21.5h5V296.2z M435,296.2h-5l0-14.9h5V296.2z M449.9,296.2
				h-5l0-8.3h5V296.2z"/>
			<path class="st0" d="M448.3,302.8h-1.7c-0.9,0-1.7,0.7-1.7,1.7c0,0.9,0.7,1.7,1.7,1.7h1.7c0.9,0,1.7-0.7,1.7-1.7
				S449.2,302.8,448.3,302.8z"/>
			<path class="st0" d="M433.3,302.8h-1.7c-0.9,0-1.7,0.7-1.7,1.7c0,0.9,0.7,1.7,1.7,1.7h1.7c0.9,0,1.7-0.7,1.7-1.7
				S434.3,302.8,433.3,302.8z"/>
			<path class="st0" d="M418.4,302.8h-1.7c-0.9,0-1.7,0.7-1.7,1.7c0,0.9,0.7,1.7,1.7,1.7h1.7c0.9,0,1.7-0.7,1.7-1.7
				S419.3,302.8,418.4,302.8z"/>
		</g>
	</g>
</g>
</svg>
