<?xml version="1.0" encoding="utf-8"?>
<!-- Generator: Adobe Illustrator 22.1.0, SVG Export Plug-In . SVG Version: 6.00 Build 0)  -->
<svg version="1.1" id="Layer_1" xmlns="http://www.w3.org/2000/svg" xmlns:xlink="http://www.w3.org/1999/xlink" x="0px" y="0px"
	 width="841.9px" height="595.3px" viewBox="0 0 841.9 595.3" style="enable-background:new 0 0 841.9 595.3;" xml:space="preserve"
	>
<style type="text/css">
	.st0{fill:#FFFFFF;}
</style>
<g>
	<g>
		<g>
			<path class="st0" d="M457.6,328.4l-11.8-11.8c-6.4-6.4-16.7-6.4-23,0l-4.7,4.7l-13.4-0.1c-1.4,0-2.7,0.5-3.7,1.5
				c-0.2,0.2-0.4,0.4-0.6,0.7l-6.8-6.8c-2-2-5.2-2.1-7.3-0.2c-1.1,1-1.7,2.3-1.7,3.7c0,1.4,0.5,2.8,1.5,3.8l2.7,2.7
				c0.6,0.6,1.6,0.6,2.2,0c0.6-0.6,0.6-1.6,0-2.2l-2.7-2.7c-0.4-0.4-0.6-1-0.6-1.6c0-0.6,0.3-1.2,0.7-1.6c0.8-0.8,2.2-0.7,3.1,0.1
				l8,8c0,0,0,0,0,0c0.2,2.7,2.4,4.9,5.2,4.9l14,0.2c0,0,0,0,0,0c0.8,0,1.5-0.7,1.5-1.6c0-0.8-0.7-1.6-1.5-1.6l-14-0.1
				c-1.2,0-2.2-1-2.2-2.2c0-0.6,0.2-1.1,0.6-1.5c0.4-0.4,1-0.6,1.5-0.6l13.6,0.1c0.5,0.1,1.1,0,1.5-0.4l5.2-5.2
				c5.2-5.2,13.6-5.2,18.7,0l11.8,11.8c0.3,0.3,0.7,0.4,1.1,0.4c0.4,0,0.8-0.1,1.1-0.4C458.2,330,458.2,329,457.6,328.4z"/>
		</g>
	</g>
	<g>
		<g>
			<path class="st0" d="M445.9,340.2l-6.5-6.5c-0.4-0.4-0.9-0.5-1.4-0.4l-12.9,2.6h-22.7l-4.8-4.8c-0.6-0.6-1.6-0.6-2.2,0
				c-0.6,0.6-0.6,1.6,0,2.2l5.2,5.2c0.3,0.3,0.7,0.4,1.1,0.4h23.5c0.1,0,0.2,0,0.3,0l12.3-2.4l6,6c0.3,0.3,0.7,0.4,1.1,0.4
				c0.4,0,0.8-0.1,1.1-0.4C446.5,341.7,446.5,340.8,445.9,340.2z"/>
		</g>
	</g>
	<g>
		<g>
			<path class="st0" d="M467,253.5h-13c-0.8,0-1.5,0.7-1.5,1.5c0,0.8,0.7,1.5,1.5,1.5h11.4v49h-88v-49h70.1c0.8,0,1.5-0.7,1.5-1.5
				c0-0.8-0.7-1.5-1.5-1.5h-71.6c-0.8,0-1.6,0.6-1.6,1.4v52.1c0,0.8,0.8,1.6,1.6,1.6H467c0.8,0,1.4-0.8,1.4-1.6v-52.1
				C468.4,254,467.8,253.5,467,253.5z"/>
		</g>
	</g>
	<g>
		<g>
			<path class="st0" d="M460.4,269.6c-4.5,0-8.2-3.6-8.2-8.2c0-0.8-0.7-1.5-1.5-1.5h-58.6c-0.8,0-1.5,0.6-1.5,1.5
				c0,4.5-3.7,8.2-8.3,8.2c-0.8,0-1.6,0.7-1.6,1.5v19.5c0,0.8,0.7,1.5,1.6,1.5c4.5,0,8.3,3.7,8.3,8.3c0,0.8,0.7,1.6,1.6,1.6h58.6
				c0.8,0,1.5-0.7,1.5-1.6c0-4.5,3.6-8.3,8.2-8.3c0.8,0,1.5-0.7,1.5-1.6v-19.5C461.9,270.3,461.3,269.6,460.4,269.6z M458.9,289.2
				c-4.9,0.7-8.9,4.7-9.6,9.8h-55.7c-0.7-5.1-4.7-9.1-9.8-9.8v-16.7c5.1-0.7,9.1-4.7,9.8-9.6h55.7c0.7,4.9,4.7,8.9,9.6,9.6V289.2z"
				/>
		</g>
	</g>
	<g>
		<g>
			<path class="st0" d="M424.7,279.5h-1.8v-8.3h5.1c0.8,0,1.5-0.7,1.5-1.5c0-0.8-0.7-1.5-1.5-1.5h-5.1v-1.8c0-0.8-0.7-1.5-1.5-1.5
				c-0.8,0-1.5,0.7-1.5,1.5v1.8h-1.6c-2.6,0-4.9,2-4.9,4.7v4.9c0,2.6,2.2,4.9,4.9,4.9h1.6v8.3h-4.9c-0.8,0-1.5,0.7-1.5,1.5
				s0.7,1.5,1.5,1.5h4.9v1.6c0,0.8,0.7,1.5,1.5,1.5s1.5-0.7,1.5-1.5v-1.6h1.8c2.6,0,4.7-2.2,4.7-4.9v-4.9
				C429.4,281.5,427.3,279.5,424.7,279.5z M419.8,279.5h-1.6c-1,0-1.8-0.9-1.8-1.8v-4.9c0-1,0.9-1.6,1.8-1.6h1.6V279.5z M426.3,289
				c0,1-0.7,1.8-1.6,1.8h-1.8v-8.3h1.8c1,0,1.6,0.7,1.6,1.6V289L426.3,289z"/>
		</g>
	</g>
	<g>
		<g>
			<path class="st0" d="M444.2,274.5c-3.5,0-6.4,2.9-6.4,6.4c0,3.5,2.9,6.4,6.4,6.4c3.5,0,6.4-2.9,6.4-6.4
				C450.6,277.4,447.7,274.5,444.2,274.5z M444.2,284.3c-1.8,0-3.4-1.5-3.4-3.4s1.5-3.4,3.4-3.4s3.4,1.5,3.4,3.4
				S446.1,284.3,444.2,284.3z"/>
		</g>
	</g>
	<g>
		<g>
			<path class="st0" d="M398.7,274.5c-3.5,0-6.4,2.9-6.4,6.4c0,3.5,2.9,6.4,6.4,6.4c3.5,0,6.4-2.9,6.4-6.4
				C405.1,277.4,402.2,274.5,398.7,274.5z M398.7,284.3c-1.8,0-3.4-1.5-3.4-3.4s1.5-3.4,3.4-3.4c1.8,0,3.4,1.5,3.4,3.4
				S400.5,284.3,398.7,284.3z"/>
		</g>
	</g>
	<g>
		<g>
			<path class="st0" d="M447.5,268.1H441c-0.8,0-1.5,0.7-1.5,1.5s0.7,1.5,1.5,1.5h6.5c0.8,0,1.5-0.7,1.5-1.5
				S448.3,268.1,447.5,268.1z"/>
		</g>
	</g>
	<g>
		<g>
			<path class="st0" d="M447.5,290.9H441c-0.8,0-1.5,0.7-1.5,1.5s0.7,1.5,1.5,1.5h6.5c0.8,0,1.5-0.7,1.5-1.5
				S448.3,290.9,447.5,290.9z"/>
		</g>
	</g>
	<g>
		<g>
			<path class="st0" d="M401.9,268.1h-6.5c-0.8,0-1.5,0.7-1.5,1.5s0.7,1.5,1.5,1.5h6.5c0.8,0,1.5-0.7,1.5-1.5
				S402.8,268.1,401.9,268.1z"/>
		</g>
	</g>
	<g>
		<g>
			<path class="st0" d="M401.9,290.9h-6.5c-0.8,0-1.5,0.7-1.5,1.5s0.7,1.5,1.5,1.5h6.5c0.8,0,1.5-0.7,1.5-1.5
				S402.8,290.9,401.9,290.9z"/>
		</g>
	</g>
</g>
</svg>
