<?xml version="1.0" encoding="utf-8"?>
<!-- Generator: Adobe Illustrator 22.1.0, SVG Export Plug-In . SVG Version: 6.00 Build 0)  -->
<svg version="1.1" id="Layer_1" xmlns="http://www.w3.org/2000/svg" xmlns:xlink="http://www.w3.org/1999/xlink" x="0px" y="0px"
	 width="841.9px" height="595.3px" viewBox="0 0 841.9 595.3" style="enable-background:new 0 0 841.9 595.3;" xml:space="preserve"
	>
<style type="text/css">
	.st0{fill:#FFFFFF;}
</style>
<g>
	<g>
		<g>
			<path class="st0" d="M459.4,288.6h-9l-1.6-30.4c0-0.9-0.8-1.6-1.7-1.6h-8.6c-0.9,0-1.7,0.7-1.7,1.6l-1.6,30.4h-3.6l-1.6-30.4
				c0-0.9-0.8-1.6-1.7-1.6h-8.6c-0.9,0-1.7,0.7-1.7,1.6l-1.6,30.4h-33.6c-1,0-1.7,0.8-1.7,1.7V337c0,1,0.8,1.7,1.7,1.7h76.9
				c1,0,1.7-0.8,1.7-1.7v-46.7C461.1,289.3,460.4,288.6,459.4,288.6z M440.1,260h5.4l1.5,28.5h-8.5L440.1,260z M421.1,260h5.4
				l1.5,28.5h-8.5L421.1,260z M414.9,335.2h-23.8v-15.3h23.8V335.2z M414.9,316.5h-23.8v-3.7h23.8V316.5z M457.7,335.2h-39.3V311
				c0-1-0.8-1.7-1.7-1.7h-27.2c-1,0-1.7,0.8-1.7,1.7v24.2h-3.5V292h73.5L457.7,335.2L457.7,335.2z"/>
			<path class="st0" d="M424.1,325h12.4c1,0,1.7-0.8,1.7-1.7s-0.8-1.7-1.7-1.7h-10.7v-8.8h25v10.5c0,1,0.8,1.7,1.7,1.7
				s1.7-0.8,1.7-1.7V311c0-1-0.8-1.7-1.7-1.7h-28.4c-1,0-1.7,0.8-1.7,1.7v12.3C422.3,324.2,423.1,325,424.1,325z"/>
			<path class="st0" d="M444.8,321.6h-0.2c-1,0-1.7,0.8-1.7,1.7s0.8,1.7,1.7,1.7h0.2c1,0,1.7-0.8,1.7-1.7S445.8,321.6,444.8,321.6z"
				/>
			<path class="st0" d="M389.4,305.9H400c1,0,1.7-0.8,1.7-1.7v-6.9c0-1-0.8-1.7-1.7-1.7h-10.6c-1,0-1.7,0.8-1.7,1.7v6.9
				C387.7,305.1,388.4,305.9,389.4,305.9z M391.1,298.9h7.1v3.5h-7.1V298.9z"/>
			<path class="st0" d="M406.9,305.9h10.6c1,0,1.7-0.8,1.7-1.7v-6.9c0-1-0.8-1.7-1.7-1.7h-10.6c-1,0-1.7,0.8-1.7,1.7v6.9
				C405.2,305.1,405.9,305.9,406.9,305.9z M408.6,298.9h7.1v3.5h-7.1V298.9z"/>
		</g>
	</g>
</g>
</svg>
