<?xml version="1.0" encoding="utf-8"?>
<!-- Generator: Adobe Illustrator 22.1.0, SVG Export Plug-In . SVG Version: 6.00 Build 0)  -->
<svg version="1.1" id="Layer_1" xmlns="http://www.w3.org/2000/svg" xmlns:xlink="http://www.w3.org/1999/xlink" x="0px" y="0px"
	 width="841.9px" height="595.3px" viewBox="0 0 841.9 595.3" style="enable-background:new 0 0 841.9 595.3;" xml:space="preserve"
	>
<style type="text/css">
	.st0{fill:#FFFFFF;}
</style>
<g>
	<g>
		<g>
			<path class="st0" d="M422.7,310.4c-0.4-0.8-1.3-1.2-2.2-0.8c-1.3,0.6-2.7,1.1-4.1,1.5c-0.6,0.2-1,0.6-1.2,1.2l-1.7,8.6
				c-0.2,0.8-0.9,1.5-1.8,1.5h-4.7c-0.9,0-1.6-0.6-1.8-1.5l-1.7-8.6c-0.1-0.6-0.6-1.1-1.2-1.2c-2-0.6-3.9-1.3-5.7-2.4
				c-0.5-0.3-1.2-0.3-1.7,0.1l-7.3,4.8c-0.7,0.5-1.7,0.4-2.3-0.2l-3.3-3.3c-0.6-0.6-0.7-1.6-0.2-2.3l4.8-7.3
				c0.3-0.5,0.4-1.2,0.1-1.7c-1-1.8-1.8-3.7-2.4-5.7c-0.2-0.6-0.6-1-1.2-1.2l-8.6-1.7c-0.8-0.2-1.5-0.9-1.5-1.8v-4.7
				c0-0.9,0.6-1.6,1.5-1.8l8.6-1.7c0.6-0.1,1.1-0.6,1.2-1.2c0.6-2,1.3-3.9,2.4-5.7c0.3-0.5,0.3-1.2-0.1-1.7l-4.8-7.3
				c-0.5-0.7-0.4-1.7,0.2-2.3l3.3-3.3c0.6-0.6,1.6-0.7,2.3-0.2l7.3,4.8c0.5,0.3,1.2,0.4,1.7,0.1c1.8-1,3.7-1.8,5.7-2.4
				c0.6-0.2,1-0.6,1.2-1.2l1.7-8.6c0.2-0.8,0.9-1.5,1.8-1.5h4.7c0.9,0,1.6,0.6,1.8,1.5l1.7,8.6c0.1,0.6,0.6,1.1,1.2,1.2
				c2,0.6,3.9,1.3,5.7,2.4c0.5,0.3,1.2,0.3,1.7-0.1l7.3-4.8c0.7-0.5,1.7-0.4,2.3,0.2l3.3,3.3c0.6,0.6,0.7,1.6,0.2,2.3l-4.8,7.3
				c-0.3,0.5-0.4,1.2-0.1,1.7c1,1.8,1.8,3.7,2.4,5.7c0.2,0.6,0.6,1,1.2,1.2l8.6,1.7c0.8,0.2,1.5,0.9,1.5,1.8v4.7
				c0,0.9-0.6,1.6-1.5,1.8l-8.6,1.7c-0.6,0.1-1.1,0.6-1.2,1.2c-0.4,1.4-0.9,2.8-1.6,4.2c-0.4,0.8,0,1.8,0.8,2.2
				c0.8,0.4,1.8,0,2.2-0.8c0.6-1.2,1.1-2.5,1.5-3.8l7.6-1.5c2.4-0.5,4.1-2.6,4.1-5v-4.7c0-2.4-1.7-4.5-4.1-5l-7.6-1.5
				c-0.5-1.6-1.1-3.1-1.9-4.6l4.3-6.5c1.3-2,1.1-4.7-0.6-6.4l-3.3-3.3c-1.7-1.7-4.4-2-6.4-0.6l-6.5,4.3c-1.5-0.8-3-1.4-4.6-1.9
				l-1.5-7.6c-0.5-2.4-2.6-4.1-5-4.1h-4.7c-2.4,0-4.5,1.7-5,4.1l-1.5,7.6c-1.6,0.5-3.1,1.1-4.6,1.9l-6.5-4.3c-2-1.3-4.7-1.1-6.4,0.6
				L380,260c-1.7,1.7-2,4.4-0.6,6.4l4.3,6.5c-0.8,1.5-1.4,3-1.9,4.6l-7.6,1.5c-2.4,0.5-4.1,2.6-4.1,5v4.7c0,2.4,1.7,4.5,4.1,5
				l7.6,1.5c0.5,1.6,1.1,3.1,1.9,4.6l-4.3,6.5c-1.3,2-1.1,4.7,0.6,6.4l3.3,3.3c1.7,1.7,4.4,2,6.4,0.6l6.5-4.3c1.5,0.8,3,1.4,4.6,1.9
				l1.5,7.6c0.5,2.4,2.6,4.1,5,4.1h4.7c2.4,0,4.5-1.7,5-4.1l1.5-7.6c1.2-0.4,2.5-0.9,3.7-1.4C422.7,312.2,423.1,311.2,422.7,310.4z"
				/>
			<path class="st0" d="M423.5,295.2c0.2,0.1,0.5,0.2,0.7,0.2c0.6,0,1.2-0.3,1.4-0.9c1.3-2.5,2-5.4,2-8.3c0-10-8.2-18.2-18.2-18.2
				c-4.8,0-9.3,1.8-12.7,5.2c-0.6,0.6-0.7,1.6,0,2.3c0.6,0.6,1.6,0.7,2.3,0c2.8-2.7,6.5-4.2,10.4-4.2c8.3,0,15,6.7,15,15
				c0,2.4-0.6,4.7-1.6,6.8C422.4,293.9,422.7,294.8,423.5,295.2z"/>
			<path class="st0" d="M394.3,279.3c-0.8-0.3-1.8,0.2-2.1,1c-0.7,1.9-1,3.9-1,5.9c0,10,8.2,18.2,18.2,18.2c3.9,0,7.5-1.2,10.7-3.5
				c0.7-0.5,0.9-1.5,0.4-2.3c-0.5-0.7-1.5-0.9-2.3-0.4c-2.6,1.9-5.6,2.8-8.8,2.8c-8.3,0-15-6.7-15-15c0-1.7,0.3-3.3,0.8-4.9
				C395.6,280.5,395.2,279.6,394.3,279.3z"/>
			<path class="st0" d="M469.5,317.6l-4.7-0.9c-0.3-0.8-0.6-1.7-1-2.5l2.6-4c1-1.5,0.8-3.6-0.5-4.9l-2.2-2.2
				c-1.3-1.3-3.4-1.5-4.9-0.5l-4,2.6c-0.8-0.4-1.6-0.7-2.5-1l-0.9-4.7c-0.4-1.8-2-3.1-3.8-3.1h-3.1c-1.8,0-3.4,1.3-3.8,3.1l-0.9,4.7
				c-0.8,0.3-1.7,0.6-2.5,1l-4-2.6c-1.5-1-3.6-0.8-4.9,0.5l-2.2,2.2c-1.3,1.3-1.5,3.4-0.5,4.9l2.6,4c-0.5,1.1-1,2.3-1.3,3.4
				c-0.2,0.9,0.3,1.8,1.1,2c0.9,0.2,1.8-0.3,2-1.1c0.4-1.3,0.9-2.5,1.5-3.6c0.3-0.5,0.3-1.2-0.1-1.7l-3.2-4.8
				c-0.2-0.3-0.1-0.6,0.1-0.8l2.2-2.2c0.2-0.2,0.6-0.2,0.8-0.1l4.8,3.2c0.5,0.3,1.2,0.4,1.7,0.1c1.1-0.6,2.4-1.1,3.6-1.5
				c0.6-0.2,1-0.6,1.2-1.2l1.1-5.6c0.1-0.3,0.3-0.5,0.6-0.5h3.1c0.3,0,0.6,0.2,0.6,0.5l1.1,5.6c0.1,0.6,0.6,1.1,1.2,1.2
				c1.3,0.4,2.5,0.9,3.6,1.5c0.5,0.3,1.2,0.3,1.7-0.1l4.8-3.2c0.3-0.2,0.6-0.1,0.8,0.1l2.2,2.2c0.2,0.2,0.2,0.6,0.1,0.8l-3.2,4.8
				c-0.3,0.5-0.4,1.2-0.1,1.7c0.6,1.1,1.1,2.4,1.5,3.6c0.2,0.6,0.6,1,1.2,1.2l5.6,1.1c0.3,0.1,0.5,0.3,0.5,0.6v3.1
				c0,0.3-0.2,0.6-0.5,0.6l-5.6,1.1c-0.6,0.1-1.1,0.6-1.2,1.2c-0.4,1.3-0.9,2.5-1.5,3.6c-0.3,0.5-0.3,1.2,0.1,1.7l3.2,4.8
				c0.2,0.3,0.1,0.6-0.1,0.8l-2.2,2.2c-0.2,0.2-0.6,0.2-0.8,0.1l-4.8-3.2c-0.5-0.3-1.2-0.4-1.7-0.1c-1.1,0.6-2.4,1.1-3.6,1.5
				c-0.6,0.2-1,0.6-1.2,1.2l-1.1,5.6c-0.1,0.3-0.3,0.5-0.6,0.5h-3.1c-0.3,0-0.6-0.2-0.6-0.5l-1.1-5.6c-0.1-0.6-0.6-1.1-1.2-1.2
				c-1.3-0.4-2.5-0.9-3.6-1.5c-0.5-0.3-1.2-0.3-1.7,0.1l-4.8,3.2c-0.3,0.2-0.6,0.1-0.8-0.1l-2.2-2.2c-0.2-0.2-0.2-0.6-0.1-0.8
				l3.2-4.8c0.3-0.5,0.4-1.2,0.1-1.7c-0.6-1.1-1.1-2.4-1.5-3.6c-0.2-0.6-0.6-1-1.2-1.2l-5.6-1.1c-0.3-0.1-0.5-0.3-0.5-0.6v-3.1
				c0-0.3,0.2-0.6,0.5-0.6l0.3-0.1c0.9-0.2,1.4-1,1.3-1.9c-0.2-0.9-1-1.4-1.9-1.3l-0.3,0.1c-1.8,0.4-3.1,2-3.1,3.8v3.1
				c0,1.8,1.3,3.4,3.1,3.8l4.7,0.9c0.3,0.8,0.6,1.7,1,2.5l-2.6,4c-1,1.5-0.8,3.6,0.5,4.9l2.2,2.2c1.3,1.3,3.4,1.5,4.9,0.5l4-2.6
				c0.8,0.4,1.6,0.7,2.5,1l0.9,4.7c0.4,1.8,2,3.1,3.8,3.1h3.1c1.8,0,3.4-1.3,3.8-3.1l0.9-4.7c0.8-0.3,1.7-0.6,2.5-1l4,2.6
				c1.5,1,3.6,0.8,4.9-0.5l2.2-2.2c1.3-1.3,1.5-3.4,0.5-4.9l-2.6-4c0.4-0.8,0.7-1.6,1-2.5l4.7-0.9c1.8-0.4,3.1-2,3.1-3.8v-3.1
				C472.6,319.6,471.3,318,469.5,317.6z"/>
			<path class="st0" d="M446.2,317.1c3.2,0,5.8,2.6,5.8,5.8c0,0.9,0.7,1.6,1.6,1.6s1.6-0.7,1.6-1.6c0-5-4.1-9.1-9.1-9.1
				c-5,0-9.1,4.1-9.1,9.1c0,5,4.1,9.1,9.1,9.1c2,0,3.9-0.7,5.5-1.9c0.7-0.5,0.8-1.6,0.3-2.3c-0.5-0.7-1.6-0.8-2.3-0.3
				c-1,0.8-2.3,1.2-3.6,1.2c-3.2,0-5.8-2.6-5.8-5.8C440.4,319.7,443,317.1,446.2,317.1z"/>
			<path class="st0" d="M419.3,286.2c0-5.4-4.4-9.9-9.9-9.9c-5.4,0-9.9,4.4-9.9,9.9c0,5.4,4.4,9.9,9.9,9.9
				C414.9,296.1,419.3,291.7,419.3,286.2z M402.8,286.2c0-3.7,3-6.6,6.6-6.6c3.7,0,6.6,3,6.6,6.6s-3,6.6-6.6,6.6
				C405.8,292.9,402.8,289.9,402.8,286.2z"/>
		</g>
	</g>
</g>
</svg>
