<?xml version="1.0" encoding="utf-8"?>
<!-- Generator: Adobe Illustrator 22.1.0, SVG Export Plug-In . SVG Version: 6.00 Build 0)  -->
<svg version="1.1" id="Layer_1" xmlns="http://www.w3.org/2000/svg" xmlns:xlink="http://www.w3.org/1999/xlink" x="0px" y="0px"
	 width="841.9px" height="595.3px" viewBox="0 0 841.9 595.3" style="enable-background:new 0 0 841.9 595.3;" xml:space="preserve"
	>
<style type="text/css">
	.st0{fill:#FFFFFF;}
</style>
<g>
	<g>
		<path class="st0" d="M447.9,301.4l-10.6-13.5c3.8-3.9,6-8.9,6.4-14.3h16.4v1.8c-3.8,0.8-6.5,4.1-6.5,8c0,4.5,3.7,8.2,8.2,8.2
			c4.5,0,8.2-3.7,8.2-8.2c0-3.9-2.7-7.2-6.5-8V272c0-0.9-0.7-1.6-1.6-1.6h-18c-0.3-4.5-2-8.8-4.8-12.4l2.3-2.3h19.2
			c0.9,2.5,3.7,3.9,6.2,3c2.5-0.9,3.9-3.7,3-6.2c-0.9-2.5-3.7-3.9-6.2-3c-1.4,0.5-2.5,1.6-3,3h-19.9c-0.4,0-0.8,0.2-1.2,0.5
			l-2.6,2.6c-9.1-8.7-23.5-8.5-32.2,0.6c-3.7,3.9-5.9,8.9-6.3,14.2h-13.7l-5.3-12c2.4-1.3,3.3-4.2,2-6.6s-4.2-3.3-6.6-2
			c-2.4,1.3-3.3,4.2-2,6.6c0.7,1.3,1.8,2.2,3.2,2.5l6.2,13.9c0.3,0.6,0.8,1,1.5,1h14.8c0.4,5.3,2.6,10.3,6.3,14.2l-13.8,13.8
			c-8.9-1.3-17.2,4.8-18.5,13.7c-1.3,8.9,4.8,17.2,13.7,18.5c0.3,0,0.5,0.1,0.8,0.1v8.2c0,0.9,0.7,1.6,1.6,1.6h15
			c0.9,2.5,3.7,3.9,6.2,3s3.9-3.7,3-6.2s-3.7-3.9-6.2-3c-1.4,0.5-2.5,1.6-3,3h-13.4v-6.6c9-0.9,15.5-8.9,14.6-17.8
			c-0.6-6.1-4.5-11.3-10.2-13.5l12.6-12.6c8.2,6.4,19.7,6.5,27.9,0.1l9.1,11.5c-12.5,1.7-21.2,13.3-19.5,25.8
			c1.7,12.5,13.3,21.2,25.8,19.5c12.5-1.7,21.2-13.3,19.5-25.8C468.1,310.1,458.9,301.8,447.9,301.4z M466.6,283.4
			c0,2.7-2.2,4.9-4.9,4.9c-2.7,0-4.9-2.2-4.9-4.9c0-2.7,2.2-4.9,4.9-4.9C464.4,278.5,466.6,280.7,466.6,283.4z M465,252.4
			c0.9,0,1.6,0.7,1.6,1.6c0,0.9-0.7,1.6-1.6,1.6c-0.9,0-1.6-0.7-1.6-1.6C463.3,253.2,464.1,252.4,465,252.4z M376.9,255.7
			c-0.9,0-1.6-0.7-1.6-1.6c0-0.9,0.7-1.6,1.6-1.6c0.9,0,1.6,0.7,1.6,1.6C378.5,255,377.8,255.7,376.9,255.7z M407.9,340.5
			c0.9,0,1.6,0.7,1.6,1.6c0,0.9-0.7,1.6-1.6,1.6c-0.9,0-1.6-0.7-1.6-1.6C406.3,341.2,407,340.5,407.9,340.5z M394.8,329
			c-4,2.4-9,2.4-13,0v-3.1c0-3.6,2.9-6.5,6.5-6.5s6.5,2.9,6.5,6.5V329z M385,312.8c0-1.8,1.5-3.3,3.3-3.3s3.3,1.5,3.3,3.3
			s-1.5,3.3-3.3,3.3S385,314.6,385,312.8z M398.1,309c2.1,2.4,3.3,5.5,3.3,8.7c0,3.2-1.2,6.2-3.3,8.6v-0.4c0-3.6-1.9-6.8-5.1-8.6
			c2.5-2.6,2.4-6.7-0.2-9.2c-2.6-2.5-6.7-2.4-9.2,0.2c-2.4,2.5-2.4,6.5,0,9c-3.1,1.7-5.1,5-5.1,8.6v0.4c-4.8-5.4-4.2-13.7,1.2-18.4
			C385.1,303.1,393.3,303.6,398.1,309z M432.4,287.9c-6.8,4.9-16,4.9-22.8,0v-4c0-3,2.4-5.4,5.4-5.4h3.6l-2.4,5.9
			c-0.2,0.6-0.1,1.3,0.4,1.8l3.3,3.3c0.6,0.6,1.7,0.6,2.3,0l3.3-3.3c0.5-0.5,0.6-1.2,0.4-1.8l-2.4-5.9h3.6c3,0,5.4,2.4,5.4,5.4
			L432.4,287.9L432.4,287.9z M421.2,261.4c-0.1,0.1-0.1,0.2-0.1,0.3c-0.8,2.5-5.3,3.4-8.2,3.7c0.4-5.5,3-8.1,8.1-8.1
			c4.6,0,7.2,2.2,7.9,6.8l-5.4-3.3C422.6,260.4,421.6,260.6,421.2,261.4z M423.2,264.5l5.8,3.5c-0.7,4-5.6,7.3-8.1,7.3
			c-3.6-0.6-6.7-3.1-7.9-6.6C415.8,268.4,420.8,267.6,423.2,264.5z M422.3,284.7l-1.3,1.3l-1.3-1.3l1.3-3.4L422.3,284.7z
			 M428.1,275.3c2.5-2,4.1-5,4.3-8.2c0-10.8-6.2-13-11.4-13c-5.2,0-11.4,2.3-11.4,13c0.2,3.2,1.8,6.2,4.3,8.2
			c-4.3,0.5-7.6,4.2-7.6,8.6v1c-7.2-8.1-6.4-20.5,1.7-27.6c8.1-7.2,20.5-6.4,27.6,1.7c6.5,7.4,6.5,18.5,0,25.9v-1
			C435.6,279.6,432.4,275.9,428.1,275.3z M458.5,340.1c-6.8,4.9-16,4.9-22.8,0v-4c0-3,2.4-5.4,5.4-5.4h3.6l-2.4,5.9
			c-0.2,0.6-0.1,1.3,0.4,1.8l3.3,3.3c0.6,0.6,1.7,0.6,2.3,0l3.3-3.3c0.5-0.5,0.6-1.2,0.4-1.8l-2.4-5.9h3.6c3,0,5.4,2.4,5.4,5.4
			V340.1z M449.3,316.7L449.3,316.7l5.8,3.5c-0.7,4-5.6,7.3-8.1,7.3c-3.6-0.6-6.7-3.1-7.9-6.6C441.9,320.6,446.9,319.8,449.3,316.7z
			 M439,317.6L439,317.6c0.4-5.5,3-8.1,8.1-8.1c4.6,0,7.2,2.2,7.9,6.8l-5.4-3.3c-0.8-0.5-1.8-0.2-2.2,0.6c-0.1,0.1-0.1,0.2-0.1,0.3
			C446.3,316.4,441.8,317.3,439,317.6z M448.4,336.9l-1.3,1.3l-1.3-1.3l1.3-3.4L448.4,336.9z M461.7,337.1v-1c0-4.4-3.2-8-7.6-8.6
			c2.5-2,4.1-5,4.3-8.2c0-10.8-6.2-13-11.4-13c-5.2,0-11.4,2.3-11.4,13c0.2,3.2,1.8,6.2,4.3,8.2c-4.3,0.5-7.6,4.2-7.6,8.6v1
			c-7.1-8.1-6.3-20.5,1.8-27.6c8.1-7.1,20.5-6.3,27.6,1.8c3.1,3.6,4.9,8.2,4.9,12.9C466.6,329,464.9,333.5,461.7,337.1z"/>
	</g>
</g>
</svg>
